<svg id="Layer_1" data-name="Layer 1" xmlns="http://www.w3.org/2000/svg" viewBox="0 0 122.88 122.88"><path d="M60.54 34.07a7.65 7.65 0 0 1-10.82-10.82l13-12.95a35.38 35.38 0 0 1 49.91 0l.07.08a35.37 35.37 0 0 1-.07 49.83l-13 12.95a7.65 7.65 0 0 1-10.82-10.82l13-13a20.08 20.08 0 0 0 0-28.23l-.11-.11a20.08 20.08 0 0 0-28.2.07l-12.95 13Zm14 3.16a7.65 7.65 0 0 1 10.77 10.82L48.05 85.31A7.65 7.65 0 0 1 37.23 74.5L74.5 37.23ZM62.1 89.05a7.65 7.65 0 0 1 10.81 10.82l-12.7 12.71a35.37 35.37 0 0 1-49.76.14l-.28-.27a35.38 35.38 0 0 1 .13-49.78L23 50a7.65 7.65 0 1 1 10.83 10.78L21.12 73.49a20.09 20.09 0 0 0 0 28.25 20.07 20.07 0 0 0 28.27 0L62.1 89.05Z"/></svg>